<?xml version="1.0" encoding="utf-8"?>
<!-- Generator: Adobe Illustrator 19.1.1, SVG Export Plug-In . SVG Version: 6.00 Build 0)  -->
<svg version="1.1" id="Layer_1" xmlns="http://www.w3.org/2000/svg" xmlns:xlink="http://www.w3.org/1999/xlink" x="0px" y="0px"
	 viewBox="-415 217 128 128" style="enable-background:new -415 217 128 128;" xml:space="preserve">
<style type="text/css">
	.st0{opacity:0.6;fill:#D1D1D1;enable-background:new    ;}
	.st1{fill:url(#SVGID_1_);}
	.st2{fill:#522D6D;}
	.st3{fill:#B578A3;}
	.st4{fill:#C681AF;}
	.st5{fill:#462960;}
	.st6{opacity:0.8;fill:#A3699B;}
	.st7{fill:#7C3C7C;}
	.st8{fill:#644CD8;}
</style>
<path class="st0" d="M-294.3,345h-108.5c-4,0-7.3-3.2-7.3-7.3V229.2c0-4,3.2-7.3,7.3-7.3h108.5c4,0,7.3,3.2,7.3,7.3v108.5
	C-287,341.7-290.2,345-294.3,345z"/>
<linearGradient id="SVGID_1_" gradientUnits="userSpaceOnUse" x1="-352.8487" y1="340.3" x2="-352.8487" y2="218">
	<stop  offset="0" style="stop-color:#1E1930"/>
	<stop  offset="1" style="stop-color:#1E1941"/>
</linearGradient>
<path class="st1" d="M-297.8,340.3h-110.1c-3.4,0-6.1-2.7-6.1-6.1V224.1c0-3.4,2.7-6.1,6.1-6.1h110.1c3.4,0,6.1,2.7,6.1,6.1v110.1
	C-291.6,337.6-294.4,340.3-297.8,340.3z"/>
<g>
	<path d="M-761.3-526.8c-15.9,0-30.2,0-44.5,0c-5,0-10,0.1-15-0.1c-12.1-0.4-19.2-7-20.4-18.9c-0.3-2.6-0.1-5.3-0.1-8
		c0-61.3,0-122.6,0-184c0-1.7,0-3.3,0-5c0.3-16.6,7.2-23.7,23.9-23.8c39.3-0.1,78.6-0.1,118,0c39.7,0,79.3,0.1,119,0.1
		c3.6,0,7.3,0,11.2-1.6c-3.8-0.9-7.5-1.9-11.3-2.8c-59.1-14.2-102.6-68.6-105.4-129.3c-3.5-75.4,49.9-126,95.9-139.4
		c46.8-13.6,91.2-9,130.2,22.5c8.7,7,16.1,15.9,23.1,24.8c23.2,29.3,45.8,58.9,68.7,88.4c2,2.6,4.2,5,6.9,8.1
		c2.9-3.5,5.2-6.3,7.4-9.1c22.9-29.5,46.1-58.7,68.5-88.5c31-41.1,72.7-56.1,122.7-52.3c62,4.7,109.5,54.2,121.8,103.1
		c18.1,71.9-21.2,145.4-90.9,168.8c-7.2,2.4-14.7,3.9-22.3,6.8c3.6,0.2,7.3,0.4,10.9,0.4c77.6,0,155.3-0.1,232.9-0.1c2,0,4,0.1,6,0
		c12.4-0.5,22.7,6.9,22.6,23c-0.4,56.3-0.1,112.6-0.1,169c0,8-0.5,16,0.1,24c1.1,15.6-8.7,24.7-23.5,24c-15-0.7-30-0.2-45-0.2
		c-3.3,0-6.6,0-11.3,0c-0.1,4.4-0.3,8.3-0.3,12.1c0,80.3,0,160.6,0,240.9c0,6,0.1,12.1-0.8,17.9c-4.5,27.4-28.5,48-56.5,48.9
		c-3,0.1-6,0.1-9,0.1c-222.6,0-445.2,0-667.8-0.1c-6.3,0-12.8,0-18.9-1.3c-26.6-5.7-45-28.3-46.7-56.5c-0.2-3.3-0.1-6.7-0.1-10
		c0-80,0-160,0-239.9C-761.3-518.2-761.3-521.8-761.3-526.8z M-461.4-766.2c0,3.6,0,5.9,0,8.3c0,144.3,0,288.6,0,432.8
		c0,3,0.1,6,0.3,9c1.2,12.9,8,22,20.2,25.9c7.1,2.3,15,3.4,22.5,3.5c35,0.4,70,0.2,105,0.1c6.3,0,12.7,0.2,19-0.4
		c21.7-1.8,33.1-14.1,33.1-35.8c0.1-145.3,0-290.6,0-435.8c0-2.5-0.5-5-0.8-7.7C-328.6-766.2-394.4-766.2-461.4-766.2z
		 M-425.1-846.5c-1.6-2.7-2.1-3.9-2.9-4.8c-25-32-50-64-75.1-95.9c-5.7-7.2-12.9-12.6-21.6-15.6c-22.6-7.6-43.5-4.6-61.5,11.4
		c-18.1,16.1-23.5,36.7-18.1,59.8c6.3,26.5,29,44.5,56.5,44.9c28.3,0.4,56.6,0.1,84.9,0.1C-450.9-846.5-439-846.5-425.1-846.5z
		 M-296.6-847.1c3.2,0.3,4.7,0.6,6.3,0.6c38.6,0,77.2,0,115.8-0.1c4,0,8-0.4,11.9-1.3c26.2-5.9,44.8-28.2,46.6-55.5
		c1.6-25.3-14-50.1-37.7-59.1c-23.4-8.9-51.4-4-68.8,19.1c-22.4,29.8-45.6,58.9-68.4,88.4C-292.6-853-294-850.8-296.6-847.1z"/>
</g>
<path class="st2" d="M-314.7,327.9h-77.7c-1.2,0-2.1-0.9-2.1-2.1v-46.5c0-1.2,0.9-2.1,2.1-2.1h77.7c1.2,0,2.1,0.9,2.1,2.1v46.5
	C-312.6,327-313.6,327.9-314.7,327.9z"/>
<rect x="-394.4" y="297.4" class="st3" width="81.8" height="7.1"/>
<g>
	<path class="st4" d="M-307.7,246.7c-1.1-9.2-13.7-10.1-20.4-8c-8,2.5-15.8,7.7-21.4,13.9c-1.6,1.8-3.2,3.7-4.5,5.8
		c-0.1,0.1-0.1,0.2-0.2,0.3c-0.6,1-1.8,4.6-3.1,4.6c0,0,7.1,0,7.1,0c10.4,0,21.2-1.4,31.1-4.9C-313.9,256.4-306.9,253.5-307.7,246.7
		z M-318.1,252.8c-9.7,3.8-20.8,6.1-31.3,6.2c0,0,14.5-13.8,25-15.1c2.7-0.3,5.9-0.4,8.3,1.1C-312.1,247.4-314.7,251.4-318.1,252.8z
		"/>
</g>
<g>
	<path class="st4" d="M-388.7,258.3c9.8,3.5,20.6,4.9,31.1,4.9c0,0,7.1,0,7.1,0c-1.3,0-2.5-3.6-3.1-4.6c-0.1-0.1-0.1-0.2-0.2-0.3
		c-1.3-2-2.9-4-4.5-5.8c-5.6-6.2-13.4-11.5-21.4-13.9c-6.8-2.1-19.3-1.1-20.4,8C-400.9,253.5-393.9,256.4-388.7,258.3z
		 M-391.7,244.9c2.4-1.5,5.6-1.4,8.3-1.1c10.4,1.3,25,15.1,25,15.1c-10.5,0-21.5-2.3-31.3-6.2C-393.1,251.4-395.7,247.4-391.7,244.9
		z"/>
</g>
<rect x="-394.5" y="280.5" class="st5" width="81.8" height="6.7"/>
<rect x="-358.7" y="297.4" class="st6" width="9.8" height="7.1"/>
<rect x="-357.3" y="280.4" class="st3" width="7.1" height="47.5"/>
<rect x="-401.6" y="263.2" class="st7" width="95.4" height="17.3"/>
<rect x="-357.3" y="263.2" class="st4" width="7.1" height="17.3"/>
<circle class="st8" cx="-366.3" cy="238.6" r="1.2"/>
<circle class="st8" cx="-411.9" cy="226.9" r="1.2"/>
<circle class="st8" cx="-409.5" cy="300.2" r="1.2"/>
<circle class="st8" cx="-303.8" cy="294.9" r="1.2"/>
<circle class="st8" cx="-296.6" cy="251.3" r="1.2"/>
<circle class="st8" cx="-333.3" cy="221.7" r="1.2"/>
<g>
	<path class="st8" d="M-384.6,219.2c0.7,0,1.2-0.6,1.2-1.2h-2.5C-385.8,218.7-385.3,219.2-384.6,219.2z"/>
</g>
</svg>
