<?xml version="1.0" encoding="utf-8"?>
<!-- Generator: Adobe Illustrator 19.1.1, SVG Export Plug-In . SVG Version: 6.00 Build 0)  -->
<svg version="1.1" id="Layer_1" xmlns="http://www.w3.org/2000/svg" xmlns:xlink="http://www.w3.org/1999/xlink" x="0px" y="0px"
	 viewBox="-467 269 24 24" style="enable-background:new -467 269 24 24;" xml:space="preserve">
<style type="text/css">
	.st0{fill:#522D6D;}
	.st1{fill:#B578A3;}
	.st2{fill:#C681AF;}
	.st3{fill:#462960;}
	.st4{fill:#A76C9D;}
	.st5{fill:#7C3C7C;}
</style>
<path class="st0" d="M-445.5,292.2h-18.9c-0.3,0-0.5-0.2-0.5-0.5v-11.3c0-0.3,0.2-0.5,0.5-0.5h18.9c0.3,0,0.5,0.2,0.5,0.5v11.3
	C-445,291.9-445.2,292.2-445.5,292.2"/>
<polyline class="st1" points="-464.8,286.5 -464.8,284.7 -445,284.7 -445,286.5 -464.8,286.5 "/>
<path class="st2" d="M-443.8,272.4c-0.3-2.2-3.3-2.5-5-1.9c-1.9,0.6-3.8,1.9-5.2,3.4c-0.4,0.4-0.8,0.9-1.1,1.4c0,0,0,0,0,0.1
	c-0.1,0.2-0.4,1.1-0.8,1.1h1.7c2.5,0,5.2-0.3,7.5-1.2C-445.3,274.8-443.6,274.1-443.8,272.4z M-446.3,273.9
	c-2.4,0.9-5.1,1.5-7.6,1.5c0,0,3.5-3.3,6.1-3.7c0.7-0.1,1.4-0.1,2,0.3C-444.8,272.6-445.5,273.6-446.3,273.9z"/>
<path class="st2" d="M-463.4,275.2c2.4,0.9,5,1.2,7.5,1.2h1.7c-0.3,0-0.6-0.9-0.8-1.1c0,0,0,0,0-0.1c-0.3-0.5-0.7-1-1.1-1.4
	c-1.4-1.5-3.2-2.8-5.2-3.4c-1.6-0.5-4.7-0.3-5,1.9C-466.4,274.1-464.7,274.8-463.4,275.2z M-464.2,272c0.6-0.4,1.4-0.3,2-0.3
	c2.5,0.3,6.1,3.7,6.1,3.7c-2.5,0-5.2-0.6-7.6-1.5C-464.5,273.6-465.2,272.6-464.2,272z"/>
<polyline class="st3" points="-445,280.6 -464.8,280.6 -464.8,282.2 -445,282.2 -445,280.6 "/>
<polyline class="st4" points="-453.8,284.7 -456.2,284.7 -456.2,286.5 -453.8,286.5 -453.8,284.7 "/>
<rect x="-455.8" y="280.6" class="st1" width="1.7" height="11.5"/>
<rect x="-466.6" y="276.4" class="st5" width="23.2" height="4.2"/>
<rect x="-455.8" y="276.4" class="st2" width="1.7" height="4.2"/>
</svg>
