<?xml version="1.0" encoding="utf-8"?>
<!-- Generator: Adobe Illustrator 19.1.1, SVG Export Plug-In . SVG Version: 6.00 Build 0)  -->
<svg version="1.1" id="Layer_1" xmlns="http://www.w3.org/2000/svg" xmlns:xlink="http://www.w3.org/1999/xlink" x="0px" y="0px"
	 viewBox="-404 206 150 150" style="enable-background:new -404 206 150 150;" xml:space="preserve">
<style type="text/css">
	.st0{fill:url(#SVGID_1_);}
	.st1{fill:#522D6D;}
	.st2{fill:#B578A3;}
	.st3{fill:#C681AF;}
	.st4{fill:#462960;}
	.st5{opacity:0.8;fill:#A3699B;}
	.st6{fill:#7C3C7C;}
	.st7{fill:#644CD8;}
</style>
<linearGradient id="SVGID_1_" gradientUnits="userSpaceOnUse" x1="-329" y1="356" x2="-329" y2="206">
	<stop  offset="0" style="stop-color:#1E1930"/>
	<stop  offset="1" style="stop-color:#1E1941"/>
</linearGradient>
<rect x="-404" y="206" class="st0" width="150" height="150"/>
<path class="st1" d="M-281.5,341h-95.4c-1.2,0-2.1-0.9-2.1-2.1v-57.5c0-1.2,0.9-2.1,2.1-2.1h95.4c1.2,0,2.1,0.9,2.1,2.1v57.5
	C-279.5,340-280.4,341-281.5,341z"/>
<rect x="-379" y="303.8" class="st2" width="99.5" height="8.7"/>
<g>
	<path class="st3" d="M-273.5,242.1c-1.4-11.1-16.6-12.3-24.9-9.7c-9.8,3-19.2,9.4-26,17c-2,2.2-3.9,4.5-5.5,7
		c-0.1,0.1-0.1,0.2-0.2,0.3c-0.7,1.2-2.2,5.6-3.8,5.6c0,0,8.7,0,8.7,0c12.7,0,25.8-1.7,37.8-6C-281,254-272.5,250.4-273.5,242.1z
		 M-286.1,249.5c-11.9,4.6-25.3,7.4-38,7.5c0,0,17.7-16.8,30.4-18.3c3.3-0.4,7.2-0.5,10.1,1.3C-278.8,243-282,247.9-286.1,249.5z"/>
</g>
<g>
	<path class="st3" d="M-372,256.2c12,4.3,25.1,6,37.8,6c0,0,8.6,0,8.7,0c-1.6,0-3.1-4.4-3.8-5.6c-0.1-0.1-0.1-0.2-0.2-0.3
		c-1.6-2.5-3.5-4.8-5.5-7c-6.8-7.6-16.3-14-26-17c-8.2-2.5-23.5-1.4-24.9,9.7C-386.9,250.4-378.4,254-372,256.2z M-375.7,240
		c2.9-1.8,6.8-1.7,10.1-1.3c12.7,1.6,30.4,18.3,30.4,18.3c-12.7-0.1-26.2-2.9-38-7.5C-377.3,247.9-380.6,243-375.7,240z"/>
</g>
<rect x="-379" y="283.2" class="st4" width="99.6" height="8.1"/>
<rect x="-335.5" y="303.8" class="st5" width="11.9" height="8.7"/>
<rect x="-333.9" y="283.2" class="st2" width="8.7" height="57.8"/>
<rect x="-387.7" y="262.3" class="st6" width="116" height="21"/>
<rect x="-333.9" y="262.3" class="st3" width="8.7" height="21"/>
<circle class="st7" cx="-344.8" cy="232.2" r="1.5"/>
<circle class="st7" cx="-400.3" cy="218" r="1.5"/>
<circle class="st7" cx="-397.3" cy="307.3" r="1.5"/>
<circle class="st7" cx="-268.7" cy="300.8" r="1.5"/>
<circle class="st7" cx="-260" cy="247.7" r="1.5"/>
<circle class="st7" cx="-304.6" cy="211.8" r="1.5"/>
<g>
	<path class="st7" d="M-367,207.5c0.8,0,1.5-0.7,1.5-1.5h-3C-368.5,206.8-367.8,207.5-367,207.5z"/>
</g>
</svg>
